<svg xmlns="http://www.w3.org/2000/svg" viewBox="0 0 94 94"><g fill="#2B6482" fill-rule="nonzero"><path d="M41.7 30.2H26c-.5 0-1 .5-1 1V47c0 .5.5 1 1 1h15.8c.6 0 1-.5 1-1V31.2c-.1-.5-.5-1-1.1-1zm-1 15.8H27V32.2h13.8V46h-.1zM70 74H44c-.5 0-1 .5-1 1v6c0 .5.5 1 1 1h26c.5 0 1-.5 1-1v-6c0-.5-.5-1-1-1zm-1 6H45v-4h24v4zm-31-6h-6c-.5 0-1 .5-1 1v6c0 .5.5 1 1 1h6c.5 0 1-.5 1-1v-6c0-.5-.5-1-1-1zm-1 6h-4v-4h4v4z"/><path d="M93 56H78V25h4c.5 0 1-.5 1-1v-7.2c0-.1-.1-.2-.1-.3l-.1-.1-.1-.1L69.7.4c-.2-.3-.5-.4-.8-.4H25.1c-.3 0-.6.1-.8.4l-13 15.9-.1.1-.1.1c-.1.1-.1.2-.1.3V24c0 .5.5 1 1 1h4v31H1c-.5 0-1 .5-1 1v.5C0 63.3 4.6 67.9 10.4 68c-2 1.6-3.4 4.2-3.4 7v10c0 2.2 1.8 4 4 4h2v4c0 .5.5 1 1 1h16c.5 0 1-.5 1-1v-4h32v4c0 .5.5 1 1 1h16c.6 0 1-.5 1-1v-4h2c2.2 0 4-1.8 4-4V75c0-2.8-1.3-5.4-3.4-7 5.8-.1 10.4-4.7 10.4-10.5V57c0-.5-.5-1-1-1zm-9.5 10h-73C6 66 2.3 62.5 2 58h90c-.3 4.5-4 8-8.5 8zm1.5 9v10c0 1.1-.9 2-2 2H11c-1.1 0-2-.9-2-2V75c0-3.9 3.1-7 7-7h62c3.9 0 7 3.1 7 7zm-6 17H65v-3h14v3zm-50 0H15v-3h14v3zM18 25h58v31h-7V31.2c0-.5-.5-1-1-1H52.3c-.6 0-1 .5-1 1V56H18V25zM68.4 2l11.5 14H14.1L25.6 2h42.8zM13 18h68v5H13v-5zm40.3 38V32.2H67V56H53.3z"/></g></svg>