<svg xmlns="http://www.w3.org/2000/svg" viewBox="0 0 94 94"><g fill="#2B6482" fill-rule="nonzero"><path d="M37.9 33.2c-.7-.7-1.7-1.1-2.8-1.1-1-.1-2 .3-2.8 1-.8.8-1.3 1.9-1.3 3 0 2.2 1.8 4 4 4s4-1.8 4-4c0-1.2-.4-2.2-1.1-2.9zM35 38c-1.1 0-2-.9-2-2 0-.6.2-1.1.7-1.5.3-.3.7-.5 1.2-.5h.1c1.1 0 2 .9 2 2s-.9 2-2 2zm46.1-6c-1-.1-2 .3-2.8 1-.8.8-1.3 1.9-1.3 3 0 2.2 1.8 4 4 4s4-1.8 4-4c0-1.1-.4-2.1-1.1-2.8-.8-.7-1.7-1.2-2.8-1.2zm-.1 6c-1.1 0-2-.9-2-2 0-.6.2-1.1.7-1.5.3-.3.7-.5 1.2-.5h.1c1.1 0 2 .9 2 2s-.9 2-2 2z"/><path d="M93.7 16.3l-3.3-3.4c-.6-.6-1.4-.9-2.2-.9H22V5.9c0-.9-.4-1.8-1.1-2.3L16.7.2c-.4-.3-.9-.3-1.2 0l-4.2 3.4C10.4 4.1 10 5 10 5.9V12H5.8c-.8 0-1.6.3-2.1.9L.4 16.3c-.4.4-.4 1 0 1.4l3.3 3.4c.5.6 1.3.9 2.1.9H10v71c0 .5.4 1 1 1h10c.5 0 1-.5 1-1V22h11v5h-2c-2.8 0-5 2.2-5 5v49c0 2.8 2.2 5 5 5h54c2.8 0 5-2.2 5-5V32c0-2.8-2.2-5-5-5h-2v-5h5.2c.8 0 1.6-.3 2.1-.9l3.3-3.4c.5-.4.5-1 .1-1.4zM88.2 20H22v-6h66.2c.3 0 .5.1.7.3l2.7 2.7-2.7 2.7c-.2.2-.4.3-.7.3zM88 81c0 1.6-1.3 3-3 3H31c-1.6 0-3-1.4-3-3V32c0-1.7 1.3-3 3-3h54c1.6 0 3 1.3 3 3v49zM35 22h4v5h-4v-5zm6 0h34v5H41v-5zm40 5h-4v-5h4v5zm-61-5v70h-8V5.9c0-.3.1-.6.4-.8L16 2.3l3.6 2.9c.3.1.4.4.4.7V22zM5.8 14H10v6H5.8c-.3 0-.5-.1-.7-.3L2.4 17l2.7-2.7c.2-.2.4-.3.7-.3z"/><path d="M47 69h8c.5 0 1-.5 1-1v-8c0-.5-.4-1-1-1h-8c-.5 0-1 .5-1 1v8c0 .5.5 1 1 1zm1-8h6v6h-6v-6z"/><path d="M77.9 48.6c0-.1-.1-.1-.1-.2 0 0-.1-.1-.1-.2l-7.1-8c-.2-.2-.5-.3-.7-.3H46.1c-.3 0-.5.1-.7.3l-7.1 8s-.1.1-.1.2-.1.1-.1.2V54c0 .5.4 1 1 1h1v21c0 .5.4 1 1 1h34c.5 0 1-.5 1-1V55h1c.5 0 1-.5 1-1v-5.3c-.2 0-.2-.1-.2-.1zM76 53H40v-3h36v3zm-2 22h-4V60c0-.5-.4-1-1-1h-8c-.5 0-1 .5-1 1v15H42V55h32v20zM62 61h6v14h-6V61zm7.4-19l5.3 6H41.2l5.3-6h22.9z"/></g></svg>