<svg viewBox="0 0 94 94" xmlns="http://www.w3.org/2000/svg"><path d="M46.999 0a1 1 0 01.993.883l.007.117v7H87c.512.002.934.387.993.884L88 9v66h5a1 1 0 01.117 1.993L93 77H62.178l9.668 15.47a1 1 0 01-1.627 1.155l-.068-.095-10-16a.972.972 0 01-.132-.419L60.017 77H47.999v16a1 1 0 01-1.994.117L46 93V77H33.98a.972.972 0 01-.084.431l-.05.1-10 16a1.003 1.003 0 01-.884.472 1.003 1.003 0 01-.875-1.416l.063-.117L31.82 77H1a1 1 0 01-.117-1.993L1 75h5V9c.002-.512.387-.934.884-.993L7 8h38.999V1a1 1 0 011-1zM86 10H8v65h78V10zM70 47h10c.067.001.134.008.2.02.066.01.13.03.19.06a1.099 1.099 0 01.26.16.671.671 0 01.14.15.724.724 0 01.11.19.295.295 0 01.05.13.93.93 0 01.044.192L81 48v10a1 1 0 01-1.993.117L79 58v-7.18L67.78 64.63a.992.992 0 01-1.323.211l-.107-.081-6.34-5.43-9.34 8.41a1.01 1.01 0 01-1.093.164l-.117-.064-10.39-6.61-10.44 8.54A.945.945 0 0128 70a.995.995 0 01-.723-1.685l.093-.085 11-9a.976.976 0 011.058-.134l.112.064 10.35 6.59 9.44-8.5a1.004 1.004 0 011.221-.085l.099.075 6.22 5.33L77.9 49H70a1 1 0 01-.117-1.993L70 47h10-10zM23.12 17h23.75c.245-.001.48.087.663.245l.087.085 7.09 7.96.12.15c.034.055.064.111.09.17.02.041.033.085.04.13a.75.75 0 01.037.172L55 26v5a1.004 1.004 0 01-.884.993L54 32h-1v21a1.003 1.003 0 01-.884.993L52 54H18a1.003 1.003 0 01-.993-.884L17 53V32h-1a1.003 1.003 0 01-.993-.884L15 31v-5a.756.756 0 01.04-.26.494.494 0 01.04-.13l.042-.087.048-.083.12-.15 7.09-7.96a1 1 0 01.62-.322l.12-.008h23.75-23.75zM51 32H19v20h18V37c.002-.512.387-.934.884-.993L38 36h8c.512.002.934.387.993.884L47 37v15h4V32zm-6 6h-6v14h6V38zm-21-2h8c.512.002.934.387.993.884L33 37v8a1.003 1.003 0 01-.884.993L32 46h-8a1.003 1.003 0 01-.993-.884L23 45v-8c.002-.512.387-.934.884-.993L24 36h8-8zm7 2h-6v6h6v-6zm22-11H17v3h36v-3zm-6.57-8H23.57l-5.34 6h33.54l-5.34-6z" fill="#2B6482" fill-rule="nonzero"/></svg>